<?xml version="1.0" standalone="no"?>
<!DOCTYPE svg PUBLIC "-//W3C//DTD SVG 20010904//EN"
 "http://www.w3.org/TR/2001/REC-SVG-20010904/DTD/svg10.dtd">
<svg version="1.0" xmlns="http://www.w3.org/2000/svg"
 width="1024.000000pt" height="1024.000000pt" viewBox="0 0 1024.000000 1024.000000"
 preserveAspectRatio="xMidYMid meet">

<g transform="translate(0.000000,1024.000000) scale(0.100000,-0.100000)"
fill="#000000" stroke="none">
<path d="M4887 8299 c-471 -33 -955 -193 -1395 -460 -203 -123 -422 -299 -594
-477 -402 -417 -683 -944 -811 -1522 -102 -457 -96 -1042 14 -1482 111 -443
237 -713 514 -1103 234 -329 569 -641 902 -841 418 -249 904 -410 1348 -445
183 -14 547 -6 693 15 214 32 501 109 716 192 137 53 397 184 516 259 275 174
557 422 746 655 344 427 554 860 668 1380 79 363 83 902 9 1295 -34 182 -124
476 -203 660 -216 507 -594 977 -1036 1287 -639 449 -1326 642 -2087 587z
m468 -319 c841 -72 1549 -469 2052 -1150 110 -149 160 -232 254 -422 329 -669
380 -1484 136 -2204 -81 -238 -155 -394 -298 -624 -296 -477 -782 -881 -1319
-1098 -322 -129 -605 -188 -955 -199 -495 -15 -931 84 -1370 311 -261 135
-464 284 -681 500 -274 273 -501 612 -632 941 -152 382 -206 674 -206 1095 1
365 40 617 148 945 142 429 369 789 707 1121 260 254 481 407 788 544 431 193
921 278 1376 240z"/>
<path d="M3202 5123 l3 -1538 253 -3 254 -2 -7 912 c-4 502 -8 948 -9 991 0
42 1 77 4 77 3 0 29 -69 58 -153 30 -83 125 -332 212 -552 87 -220 184 -471
216 -557 56 -148 61 -158 85 -158 30 0 10 -48 284 685 184 491 268 709 277
720 4 5 8 -435 8 -978 l0 -987 249 0 c187 0 251 3 257 13 5 7 8 681 6 1540
l-2 1527 -304 0 -303 0 -16 -42 c-34 -93 -435 -1315 -442 -1345 -3 -18 -10
-33 -14 -33 -4 0 -20 42 -35 93 -76 254 -188 609 -300 947 l-125 375 -305 3
-306 2 2 -1537z"/>
<path d="M5560 6395 l0 -265 265 0 265 0 0 -418 c0 -230 3 -804 7 -1275 l6
-857 254 0 254 0 -5 808 c-4 444 -9 1017 -12 1274 l-5 468 263 2 263 3 0 260
0 260 -777 3 -778 2 0 -265z"/>
</g>
</svg>
